<?xml version="1.0" standalone="no"?>
<!DOCTYPE svg PUBLIC "-//W3C//DTD SVG 20010904//EN"
 "http://www.w3.org/TR/2001/REC-SVG-20010904/DTD/svg10.dtd">
<svg version="1.0" xmlns="http://www.w3.org/2000/svg"
 width="902.000000pt" height="902.000000pt" viewBox="0 0 902.000000 902.000000"
 preserveAspectRatio="xMidYMid meet">
<metadata>
Created by potrace 1.11, written by Peter Selinger 2001-2013
</metadata>
<g transform="translate(0.000000,902.000000) scale(0.100000,-0.100000)"
fill="#000000" stroke="none">
<path d="M4830 8613 c-176 -35 -795 -203 -1085 -294 -893 -280 -1609 -584
-2311 -981 l-122 -68 -35 -108 c-40 -119 -57 -234 -57 -387 l0 -101 296 -224
c163 -124 329 -250 368 -281 39 -30 150 -115 246 -189 96 -73 213 -163 260
-200 47 -36 133 -104 193 -149 59 -46 107 -88 107 -94 0 -15 -182 -186 -475
-446 -84 -75 -504 -423 -610 -506 -126 -99 -296 -210 -402 -264 -95 -47 -200
-65 -311 -51 -139 18 -191 62 -238 200 -15 43 -18 81 -17 175 2 125 12 184 87
499 19 82 38 176 41 210 l6 61 -61 -125 c-144 -292 -200 -488 -200 -689 2
-289 118 -472 396 -622 52 -28 94 -56 94 -63 0 -7 -27 -82 -59 -167 -102 -263
-140 -420 -148 -599 -4 -83 -1 -136 11 -190 31 -148 122 -294 249 -401 101
-84 154 -103 297 -103 136 -1 140 1 314 139 64 51 113 82 118 77 5 -5 13 -76
18 -158 21 -327 72 -513 184 -683 54 -81 159 -181 240 -230 78 -47 233 -98
341 -112 163 -21 513 -4 731 37 l31 6 6 -69 c10 -108 45 -230 94 -332 38 -79
59 -108 127 -175 175 -174 372 -220 556 -130 64 32 98 60 231 193 86 86 227
239 314 341 258 301 549 578 649 616 14 6 16 -23 17 -287 0 -162 4 -314 8
-339 l8 -45 12 30 c23 56 79 259 90 330 9 62 31 338 31 400 0 20 22 37 133
103 181 109 341 188 465 228 107 35 369 104 396 104 9 0 48 -51 89 -112 89
-137 157 -212 229 -256 176 -105 497 -71 712 77 177 122 276 392 276 753 0 96
-6 151 -160 1428 -175 1452 -209 1755 -245 2160 -32 371 -40 490 -30 490 4 0
30 -20 57 -45 28 -25 53 -43 56 -41 2 3 -35 94 -83 203 -92 208 -215 514 -215
535 0 23 -18 -7 -59 -100 l-41 -94 25 -211 c14 -117 111 -889 215 -1717 225
-1788 251 -1995 289 -2380 45 -443 54 -571 44 -581 -19 -19 -224 -89 -338
-115 -98 -22 -145 -28 -255 -28 -194 -1 -288 31 -346 120 -16 24 -15 25 52
100 103 113 152 180 196 268 147 292 107 664 -95 883 -22 24 -55 52 -71 61
-38 20 -164 22 -219 3 -95 -32 -207 -197 -242 -357 -26 -114 -17 -372 20 -559
15 -77 28 -153 28 -169 l2 -30 -210 -61 c-224 -65 -339 -106 -529 -192 -66
-29 -121 -53 -123 -53 -2 0 -1 156 3 348 5 253 3 411 -7 582 -8 129 -14 273
-14 320 l0 85 55 6 c64 8 135 34 238 90 245 131 361 307 379 574 7 110 0 167
-172 1450 -166 1238 -248 1975 -220 1975 3 0 42 -18 86 -41 45 -22 82 -39 84
-37 3 4 -246 519 -309 637 -27 50 -54 90 -60 88 -6 -2 -28 -55 -50 -117 l-38
-114 36 -230 c65 -403 82 -528 230 -1636 212 -1589 256 -1941 256 -2061 0 -45
-3 -50 -52 -93 -95 -84 -292 -166 -398 -166 -61 0 -106 18 -119 47 -7 15 -28
159 -47 321 -18 161 -47 400 -64 530 -104 813 -153 1210 -174 1435 -3 26 -2
47 2 47 4 0 36 -20 71 -45 36 -25 67 -43 69 -40 3 2 -52 129 -121 282 -69 153
-143 318 -165 367 -45 100 -36 101 -99 -11 -28 -51 -29 -53 -21 -145 18 -200
72 -660 148 -1263 123 -978 171 -1428 152 -1447 -15 -15 -99 26 -199 98 -45
33 -198 161 -340 285 -304 266 -577 497 -873 740 -118 97 -224 186 -235 198
-24 28 -18 32 90 63 112 32 331 32 455 1 153 -39 279 -101 428 -214 40 -31 43
-32 60 -16 14 15 18 41 20 145 5 179 1 188 -123 283 -237 181 -363 358 -454
636 -78 236 -132 573 -92 573 4 0 29 -7 55 -16 26 -9 49 -14 52 -12 6 7 -31
88 -148 331 -74 150 -106 207 -119 207 -37 0 -87 -153 -96 -295 -11 -166 23
-370 122 -735 98 -361 136 -513 131 -525 -3 -8 -50 -15 -137 -19 -208 -12
-307 -32 -517 -109 -95 -34 -118 -39 -140 -30 -15 5 -94 57 -177 115 -272 190
-477 333 -665 463 -738 512 -910 634 -910 646 0 23 458 263 750 393 279 123
920 363 1340 501 113 37 257 85 320 107 512 179 631 212 863 243 65 8 164 15
221 15 90 0 107 -3 130 -21 39 -31 66 -91 66 -147 0 -74 -34 -122 -320 -437
-222 -245 -299 -340 -357 -445 -40 -73 -85 -187 -81 -207 2 -10 48 35 124 123
67 76 136 155 153 174 199 218 372 432 466 574 179 274 226 541 114 643 -53
48 -106 66 -202 69 -51 1 -103 0 -117 -3z m-1699 -3442 c382 -319 596 -563
721 -822 70 -144 70 -142 -1 -209 -83 -79 -194 -132 -373 -176 -79 -19 -196
-48 -261 -64 -65 -16 -155 -45 -200 -64 -45 -19 -147 -60 -227 -92 -197 -77
-396 -167 -505 -227 -200 -110 -262 -165 -588 -509 -162 -172 -242 -238 -361
-298 -161 -82 -278 -34 -371 150 -82 163 -86 335 -14 609 44 166 143 407 181
438 7 6 83 47 168 90 274 140 419 249 815 618 241 224 283 262 395 361 236
206 396 324 441 324 19 0 68 -35 180 -129z m611 -159 c175 -128 380 -305 683
-592 393 -372 507 -462 711 -561 67 -32 125 -66 128 -75 24 -62 37 -307 45
-809 5 -297 6 -554 4 -572 -4 -25 -16 -39 -62 -69 -227 -149 -442 -366 -686
-689 -199 -264 -293 -359 -468 -473 -211 -137 -406 -147 -506 -25 -37 45 -81
154 -109 273 -37 151 -45 135 92 191 381 157 630 310 1004 616 266 217 372
401 372 644 0 124 -28 223 -117 419 -36 80 -81 180 -100 223 -35 79 -53 157
-37 157 5 0 36 -10 70 -22 63 -23 102 -20 87 7 -16 28 -207 247 -299 343 l-94
97 -19 -23 c-24 -28 -60 -133 -68 -200 -7 -65 -3 -77 145 -392 197 -421 302
-667 302 -707 0 -29 -25 -58 -118 -140 -231 -202 -612 -401 -1057 -553 -81
-27 -150 -48 -152 -46 -3 2 34 119 82 260 48 140 85 262 83 271 -3 14 -277
-521 -292 -571 -5 -18 -28 -28 -123 -54 -231 -64 -295 -74 -473 -74 -181 -1
-252 12 -410 75 -311 124 -440 320 -457 695 -7 164 -2 176 127 304 228 227
423 327 1050 542 314 108 374 131 507 198 133 68 260 157 309 216 44 54 81
134 94 204 17 89 12 246 -10 340 -40 167 -165 386 -325 570 -62 72 -81 108
-50 97 8 -4 69 -46 137 -95z m2967 -1527 c93 -51 154 -142 174 -263 8 -53 8
-69 -6 -97 -22 -47 -135 -137 -235 -188 l-83 -42 -24 27 c-27 32 -88 186 -110
278 -17 74 -20 226 -5 265 15 40 62 56 155 52 66 -3 90 -8 134 -32z"/>
<path d="M2567 4553 c-47 -78 -87 -159 -87 -176 0 -20 157 -174 208 -204 59
-35 79 -27 146 61 81 109 81 109 168 34 126 -110 164 -138 185 -138 11 0 35
16 54 34 42 43 109 153 109 178 0 21 -171 202 -229 242 -24 17 -44 24 -55 20
-10 -4 -49 -49 -87 -101 l-70 -94 -30 18 c-17 10 -64 46 -105 80 -85 70 -135
103 -157 103 -9 0 -31 -26 -50 -57z"/>
<path d="M3430 3143 c-40 -39 -110 -146 -110 -170 0 -15 146 -170 201 -214 21
-16 50 -32 66 -35 27 -5 33 0 92 83 98 136 97 121 10 209 -87 88 -181 164
-204 164 -9 0 -33 -17 -55 -37z"/>
<path d="M6312 8188 l-52 -123 25 -155 c13 -85 40 -254 59 -375 62 -393 112
-770 231 -1750 36 -302 103 -774 111 -786 2 -4 8 -55 13 -114 5 -59 14 -112
19 -117 12 -12 34 44 60 157 41 175 52 412 32 645 -6 63 -56 464 -111 890
-103 798 -149 1153 -149 1157 0 2 32 -17 72 -42 39 -24 73 -43 75 -42 2 3
-309 734 -325 763 -5 10 -25 -25 -60 -108z"/>
<path d="M6059 7213 c-6 -16 -20 -71 -31 -123 -40 -188 -5 -346 86 -393 35
-18 42 -19 64 -6 46 26 67 65 67 127 0 64 -21 82 -45 38 -27 -51 -62 -38 -104
39 -19 36 -21 56 -21 193 0 83 -1 152 -3 152 -1 0 -7 -12 -13 -27z"/>
<path d="M3072 7127 c-17 -20 -41 -132 -48 -222 -10 -130 27 -262 82 -287 32
-15 69 11 101 72 42 79 21 147 -27 88 -15 -19 -22 -21 -46 -13 -16 6 -39 26
-52 45 -26 38 -26 58 -2 239 11 87 10 100 -8 78z"/>
<path d="M7801 6748 l-33 -153 31 -195 c43 -272 234 -1636 266 -1890 21 -176
40 -393 75 -870 32 -439 36 -480 49 -480 10 0 50 88 82 180 22 60 24 85 27
340 6 411 -19 722 -109 1340 -22 151 -51 352 -64 445 -24 171 -95 748 -95 773
0 10 12 7 43 -11 23 -13 68 -39 100 -57 l57 -32 -45 98 c-87 188 -337 664
-349 664 -1 0 -17 -69 -35 -152z"/>
<path d="M1152 6512 c-166 -171 -317 -413 -349 -562 -36 -171 -6 -400 60 -456
57 -48 135 -14 233 103 90 109 181 279 160 300 -10 11 -44 -10 -100 -63 -68
-63 -98 -74 -127 -49 -49 45 -66 242 -30 346 27 80 95 210 173 333 38 59 67
113 65 120 -3 6 -41 -26 -85 -72z"/>
<path d="M1800 5877 c-65 -146 -100 -421 -66 -510 32 -85 98 -114 161 -73 28
18 69 98 62 119 -2 7 -25 12 -58 12 l-54 0 -24 49 c-31 62 -32 153 -2 293 23
112 26 153 10 153 -5 0 -19 -19 -29 -43z"/>
<path d="M8367 5493 c-4 -6 -16 -48 -28 -94 -25 -102 -38 -370 -20 -435 13
-49 79 -114 114 -114 45 1 77 48 77 113 0 52 -12 61 -44 36 -26 -21 -28 -21
-42 -3 -26 33 -54 101 -61 149 -3 26 0 111 7 189 12 137 12 183 -3 159z"/>
<path d="M4700 5279 c-46 -28 -108 -87 -126 -121 -13 -25 -12 -32 5 -67 22
-43 77 -105 101 -113 11 -4 -8 -27 -65 -80 -78 -73 -79 -75 -57 -87 21 -11 34
-6 119 41 53 29 140 82 192 119 93 63 96 66 99 107 2 23 1 42 -2 42 -3 0 -39
-11 -80 -25 -91 -31 -159 -32 -203 -5 -26 15 -33 27 -33 50 0 23 7 35 33 50
48 31 78 36 92 17 16 -23 25 -11 25 33 0 62 -37 77 -100 39z"/>
<path d="M6407 4663 c-53 -81 -87 -147 -87 -167 0 -31 231 -236 265 -236 8 0
47 39 87 87 41 49 82 89 92 91 10 2 44 -20 84 -55 97 -86 161 -133 181 -133
31 0 69 38 121 123 27 45 50 86 50 92 0 26 -253 265 -281 265 -11 0 -44 -34
-69 -70 -13 -19 -41 -56 -63 -83 l-39 -47 -30 17 c-16 10 -64 46 -106 81 -65
54 -139 102 -156 102 -2 0 -24 -30 -49 -67z"/>
<path d="M6276 1924 c-14 -15 -33 -50 -42 -78 -16 -55 -43 -238 -44 -298 0
-21 -5 -38 -10 -38 -6 0 -43 51 -83 113 -101 153 -195 237 -267 237 -40 0 -61
-86 -40 -161 14 -52 47 -83 110 -103 109 -36 168 -98 238 -248 47 -102 62 -92
93 63 5 30 13 128 17 218 7 144 10 165 27 177 28 21 46 17 94 -21 53 -42 63
-43 90 -9 27 34 26 53 -2 95 -52 77 -132 101 -181 53z"/>
<path d="M2968 1410 c-39 -57 -61 -258 -38 -342 22 -79 93 -126 146 -97 25 13
84 119 84 151 0 24 -32 23 -55 -2 -24 -26 -47 -25 -72 3 -35 39 -38 50 -43
182 -5 127 -5 129 -22 105z"/>
</g>
</svg>
